<?xml version="1.0" encoding="UTF-8"?>
<!DOCTYPE svg PUBLIC "-//W3C//DTD SVG 1.1//EN" "http://www.w3.org/Graphics/SVG/1.1/DTD/svg11.dtd">
<!-- Creator: CorelDRAW X5 -->
<svg xmlns="http://www.w3.org/2000/svg" xml:space="preserve" width="2.546in" height="0.813in" style="shape-rendering:geometricPrecision; text-rendering:geometricPrecision; image-rendering:optimizeQuality; fill-rule:evenodd; clip-rule:evenodd"
viewBox="0 0 2546 813"
 xmlns:xlink="http://www.w3.org/1999/xlink">
 <defs>
  <style type="text/css">
   <![CDATA[
    .str1 {stroke:#3E4095;stroke-width:6.66535}
    .str0 {stroke:#00AFEF;stroke-width:16.6654}
    .fil1 {fill:none}
    .fil2 {fill:#3E4095}
    .fil0 {fill:#FEFEFE}
    .fil3 {fill:#00AFEF;fill-rule:nonzero}
    .fil4 {fill:#3E4095;fill-rule:nonzero}
   ]]>
  </style>
 </defs>
 <g id="Layer_x0020_1">
  <metadata id="CorelCorpID_0Corel-Layer"/>
  <circle class="fil0 str0" cx="329" cy="507" r="292"/>
  <ellipse class="fil1 str1" cx="330" cy="475" rx="125" ry="109"/>
  <ellipse class="fil2" cx="330" cy="460" rx="40" ry="35"/>
  <path class="fil2" d="M258 145c0,-85 129,-85 129,0 0,85 -129,85 -129,0zm-67 -2c0,49 39,111 60,153 10,20 67,130 70,141l5 0c3,-12 86,-174 104,-213 13,-27 26,-41 26,-82 0,-69 -59,-129 -134,-129 -69,0 -129,61 -129,129z"/>
  <g id="_260041560">
   <path class="fil3" d="M919 549l-85 0 -36 -95 -24 0 0 95 -77 0 0 -250 130 0c29,0 51,7 67,20 16,13 24,31 24,53 0,14 -3,27 -9,38 -6,11 -18,21 -35,29l45 109zm-146 -149l33 0c10,0 17,-2 23,-6 6,-4 9,-10 9,-18 0,-16 -10,-24 -29,-24l-35 0 0 48zm266 153c-31,0 -55,-10 -74,-29 -18,-19 -27,-42 -27,-68 0,-28 9,-51 28,-70 19,-19 44,-28 74,-28 31,0 55,9 74,27 19,18 28,41 28,69 0,28 -9,51 -28,70 -19,19 -44,28 -75,28zm1 -44c11,0 18,-6 21,-18 2,-12 4,-24 4,-37 0,-17 -2,-30 -5,-38 -4,-8 -10,-12 -19,-12 -8,0 -15,4 -18,12 -4,8 -6,21 -6,39 0,21 2,35 6,42 4,7 10,10 18,10zm204 -217l0 58 -73 0 0 -58 73 0zm0 71l0 186 -73 0 0 -186 73 0zm161 119l68 5c-4,18 -14,34 -31,47 -17,13 -39,19 -67,19 -31,0 -56,-9 -75,-27 -19,-18 -28,-41 -28,-67 0,-28 9,-51 28,-70 18,-19 43,-29 74,-29 30,0 54,9 72,27 18,18 28,43 28,74 0,3 0,6 0,11l-125 0c0,12 2,20 6,26 4,6 11,8 22,8 16,0 25,-8 28,-23zm-5 -48c0,-13 -3,-21 -8,-25 -5,-4 -11,-6 -18,-6 -17,0 -26,11 -26,32l52 0z"/>
   <path class="fil4" d="M1607 360l0 190 -73 0 0 -190 -52 0 0 -60 176 0 0 60 -52 0zm129 190l-70 0 0 -186 61 0 0 38c7,-28 23,-42 49,-42 3,0 6,0 11,1l0 65c-5,-1 -10,-2 -14,-2 -24,0 -36,13 -36,40l0 85zm260 0l-70 0c-2,-8 -3,-17 -3,-26 -13,20 -33,30 -60,30 -22,0 -38,-6 -49,-17 -11,-11 -16,-24 -16,-39 0,-20 9,-36 27,-48 18,-12 49,-19 95,-22l0 -4c0,-8 -2,-14 -6,-16 -4,-3 -9,-4 -16,-4 -17,0 -26,7 -28,20l-67 -6c9,-39 42,-58 97,-58 15,0 29,2 41,4 13,3 23,8 30,14 7,6 12,13 15,20 2,7 4,21 4,41l0 74c0,14 2,26 6,36zm-76 -87c-31,3 -47,13 -47,30 0,11 6,17 18,17 8,0 14,-2 20,-7 5,-5 8,-15 8,-31l0 -9zm220 12l62 5c-3,22 -12,39 -27,53 -15,14 -36,21 -61,21 -28,0 -51,-9 -69,-27 -18,-18 -27,-41 -27,-69 0,-29 9,-52 26,-70 18,-18 41,-28 69,-28 25,0 45,7 61,21 16,14 25,32 27,53l-64 5c-3,-20 -10,-29 -22,-29 -8,0 -13,4 -17,11 -4,7 -5,20 -5,37 0,15 2,27 5,34 4,7 10,11 19,11 13,0 21,-9 23,-28zm281 -111l-56 64 63 122 -75 0 -35 -74 -20 23 0 51 -68 0 0 -250 68 0 0 101c0,3 0,14 0,34 4,-6 9,-12 13,-17l47 -54 64 0z"/>
  </g>
 </g>
</svg>
